<svg width="47" height="47" viewBox="0 0 47 47" fill="none" xmlns="http://www.w3.org/2000/svg">
<path d="M34 25.8751V34H29.4989V26.419C29.4989 24.5141 28.8476 23.2148 27.2188 23.2148C25.9752 23.2148 25.2345 24.0913 24.9094 24.938C24.7905 25.2408 24.76 25.6625 24.76 26.0865V34H20.2567C20.2567 34 20.3178 21.1613 20.2567 19.8301H24.76V21.8385L24.7305 21.8847H24.76V21.8385C25.3576 20.875 26.4255 19.4975 28.8171 19.4975C31.7789 19.4975 34 21.5235 34 25.8751V25.8751ZM15.5473 13C14.008 13 13 14.057 13 15.4477C13 16.8076 13.9785 17.8966 15.4884 17.8966H15.5178C17.0887 17.8966 18.064 16.8076 18.064 15.4477C18.0367 14.057 17.0897 13 15.5483 13H15.5473ZM13.2672 34H17.7684V19.8301H13.2672V34Z" fill="white"/>
<rect x="1" y="1" width="45" height="45" rx="22.5" stroke="white" stroke-width="2"/>
</svg>
