<svg width="47" height="47" viewBox="0 0 47 47" fill="none" xmlns="http://www.w3.org/2000/svg">
<rect x="1" y="1" width="45" height="45" rx="22.5" stroke="white" stroke-width="2"/>
<path d="M34 17.0165C33.2277 17.3573 32.3981 17.5875 31.526 17.6916C32.4259 17.1554 33.0991 16.3115 33.4201 15.3173C32.5746 15.8174 31.6493 16.1694 30.6844 16.358C30.0355 15.6681 29.176 15.2108 28.2393 15.0571C27.3027 14.9034 26.3413 15.062 25.5044 15.5082C24.6675 15.9544 24.002 16.6632 23.6111 17.5246C23.2203 18.3861 23.1259 19.3519 23.3428 20.2722C21.6296 20.1865 19.9537 19.7431 18.4238 18.9708C16.8939 18.1984 15.5442 17.1143 14.4622 15.7888C14.0923 16.4243 13.8795 17.1611 13.8795 17.9458C13.8791 18.6522 14.0538 19.3477 14.3881 19.9708C14.7224 20.5938 15.206 21.1251 15.7959 21.5174C15.1117 21.4957 14.4427 21.3116 13.8444 20.9804V21.0357C13.8443 22.0264 14.1885 22.9867 14.8185 23.7535C15.4484 24.5203 16.3254 25.0465 17.3006 25.2427C16.666 25.4138 16.0006 25.439 15.3547 25.3164C15.6299 26.1689 16.1658 26.9143 16.8876 27.4484C17.6093 27.9825 18.4807 28.2785 19.3797 28.2949C17.8535 29.4879 15.9687 30.1351 14.0285 30.1322C13.6848 30.1323 13.3413 30.1123 13 30.0724C14.9695 31.3334 17.2621 32.0026 19.6035 32C27.5296 32 31.8626 25.4629 31.8626 19.7933C31.8626 19.6091 31.858 19.423 31.8497 19.2388C32.6925 18.6319 33.42 17.8803 33.9982 17.0193L34 17.0165V17.0165Z" fill="white"/>
</svg>
